<svg width="32" height="32" viewBox="0 0 32 32" fill="none" xmlns="http://www.w3.org/2000/svg">
<rect width="32" height="32" rx="16" fill="#1D2129"/>
<path fill-rule="evenodd" clip-rule="evenodd" d="M26 16C26 16.492 25.8045 16.9839 25.4135 17.3593L21.1659 21.437C20.3839 22.1877 19.1161 22.1877 18.3341 21.437L16.5304 19.7053L16.5024 19.6798C16.2086 19.425 15.7554 19.433 15.4716 19.7036L13.6659 21.437C12.8839 22.1877 11.6161 22.1877 10.8341 21.437L6.58648 17.3593C6.1955 16.9839 6 16.492 6 16C6 15.508 6.1955 15.0161 6.58648 14.6407L10.8341 10.563C11.6161 9.81233 12.8839 9.81233 13.6659 10.563L15.4716 12.2965C15.7554 12.567 16.2086 12.575 16.5024 12.3202L16.5304 12.2947L18.3341 10.563C19.1161 9.81233 20.3839 9.81234 21.1659 10.563L25.4135 14.6407C25.8045 15.0161 26 15.508 26 16ZM15.9015 16C15.9015 15.835 15.836 15.6701 15.7051 15.5444L13.9071 13.8183C13.9054 13.8166 13.9036 13.815 13.9018 13.8133L12.7204 12.679C12.4603 12.4293 12.0397 12.4293 11.7796 12.679L8.79481 15.5444C8.66394 15.6701 8.59841 15.835 8.59842 16C8.59842 16.165 8.66394 16.3299 8.79481 16.4556L11.7796 19.321C12.0397 19.5707 12.4603 19.5707 12.7204 19.321L13.9018 18.1867C13.9036 18.185 13.9054 18.1834 13.9071 18.1817L15.7051 16.4556C15.836 16.3299 15.9015 16.165 15.9015 16ZM18.5 16C18.5 16.492 18.3045 16.9839 17.9135 17.3593L17.5091 17.7475C17.7192 17.8669 17.9175 18.0133 18.0982 18.1868L19.2795 19.321C19.5396 19.5707 19.9602 19.5707 20.2203 19.321L23.2051 16.4556C23.336 16.3299 23.4015 16.165 23.4015 16C23.4015 15.835 23.336 15.6701 23.2051 15.5444L20.2203 12.679C19.9602 12.4293 19.5396 12.4293 19.2795 12.679L18.0982 13.8132C17.9175 13.9867 17.7192 14.1331 17.5091 14.2525L17.9135 14.6407C18.3045 15.0161 18.5 15.508 18.5 16Z" fill="white"/>
</svg>
